<mxfile host="Electron" modified="2023-05-26T19:50:55.082Z" agent="Mozilla/5.0 (Windows NT 10.0; Win64; x64) AppleWebKit/537.36 (KHTML, like Gecko) draw.io/21.2.8 Chrome/112.0.5615.165 Electron/24.2.0 Safari/537.36" etag="B1zDYsZsMZGyJoAtjccH" version="21.2.8" type="device">
  <diagram name="PÃ¡gina-1" id="x9-BwdDEvljTsPrbuYUk">
    <mxGraphModel dx="1634" dy="1512" grid="1" gridSize="10" guides="1" tooltips="1" connect="1" arrows="1" fold="1" page="1" pageScale="1" pageWidth="827" pageHeight="1169" math="0" shadow="0">
      <root>
        <mxCell id="0" />
        <mxCell id="1" parent="0" />
        <mxCell id="xXruQWbL6GqGqKSQ3jyv-20" style="edgeStyle=orthogonalEdgeStyle;rounded=0;orthogonalLoop=1;jettySize=auto;html=1;exitX=1;exitY=0.5;exitDx=0;exitDy=0;" edge="1" parent="1" source="xXruQWbL6GqGqKSQ3jyv-1" target="xXruQWbL6GqGqKSQ3jyv-2">
          <mxGeometry relative="1" as="geometry" />
        </mxCell>
        <mxCell id="xXruQWbL6GqGqKSQ3jyv-1" value="Usuario" style="ellipse;whiteSpace=wrap;html=1;align=center;" vertex="1" parent="1">
          <mxGeometry x="-130" y="220" width="100" height="40" as="geometry" />
        </mxCell>
        <mxCell id="xXruQWbL6GqGqKSQ3jyv-21" style="edgeStyle=orthogonalEdgeStyle;rounded=0;orthogonalLoop=1;jettySize=auto;html=1;exitX=1;exitY=0.5;exitDx=0;exitDy=0;entryX=0;entryY=0.5;entryDx=0;entryDy=0;" edge="1" parent="1" source="xXruQWbL6GqGqKSQ3jyv-2" target="xXruQWbL6GqGqKSQ3jyv-4">
          <mxGeometry relative="1" as="geometry" />
        </mxCell>
        <mxCell id="xXruQWbL6GqGqKSQ3jyv-23" style="edgeStyle=orthogonalEdgeStyle;rounded=0;orthogonalLoop=1;jettySize=auto;html=1;exitX=0.5;exitY=1;exitDx=0;exitDy=0;entryX=0.5;entryY=0;entryDx=0;entryDy=0;" edge="1" parent="1" source="xXruQWbL6GqGqKSQ3jyv-2" target="xXruQWbL6GqGqKSQ3jyv-5">
          <mxGeometry relative="1" as="geometry" />
        </mxCell>
        <mxCell id="xXruQWbL6GqGqKSQ3jyv-24" style="edgeStyle=orthogonalEdgeStyle;rounded=0;orthogonalLoop=1;jettySize=auto;html=1;exitX=0.5;exitY=0;exitDx=0;exitDy=0;entryX=0.5;entryY=1;entryDx=0;entryDy=0;" edge="1" parent="1" source="xXruQWbL6GqGqKSQ3jyv-2" target="xXruQWbL6GqGqKSQ3jyv-3">
          <mxGeometry relative="1" as="geometry" />
        </mxCell>
        <mxCell id="xXruQWbL6GqGqKSQ3jyv-27" style="edgeStyle=orthogonalEdgeStyle;rounded=0;orthogonalLoop=1;jettySize=auto;html=1;exitX=0;exitY=1;exitDx=0;exitDy=0;entryX=0.5;entryY=0;entryDx=0;entryDy=0;" edge="1" parent="1" source="xXruQWbL6GqGqKSQ3jyv-2" target="xXruQWbL6GqGqKSQ3jyv-7">
          <mxGeometry relative="1" as="geometry" />
        </mxCell>
        <mxCell id="xXruQWbL6GqGqKSQ3jyv-58" style="edgeStyle=orthogonalEdgeStyle;rounded=0;orthogonalLoop=1;jettySize=auto;html=1;exitX=0.5;exitY=0;exitDx=0;exitDy=0;entryX=0;entryY=0.5;entryDx=0;entryDy=0;" edge="1" parent="1" source="xXruQWbL6GqGqKSQ3jyv-2" target="xXruQWbL6GqGqKSQ3jyv-56">
          <mxGeometry relative="1" as="geometry" />
        </mxCell>
        <mxCell id="xXruQWbL6GqGqKSQ3jyv-2" value="Tiene" style="shape=rhombus;perimeter=rhombusPerimeter;whiteSpace=wrap;html=1;align=center;" vertex="1" parent="1">
          <mxGeometry x="220" y="210" width="120" height="60" as="geometry" />
        </mxCell>
        <mxCell id="xXruQWbL6GqGqKSQ3jyv-28" style="edgeStyle=orthogonalEdgeStyle;rounded=0;orthogonalLoop=1;jettySize=auto;html=1;exitX=1;exitY=0.5;exitDx=0;exitDy=0;entryX=0;entryY=0.5;entryDx=0;entryDy=0;" edge="1" parent="1" source="xXruQWbL6GqGqKSQ3jyv-3" target="xXruQWbL6GqGqKSQ3jyv-9">
          <mxGeometry relative="1" as="geometry" />
        </mxCell>
        <mxCell id="xXruQWbL6GqGqKSQ3jyv-3" value="&lt;span style=&quot;border-bottom: 1px dotted&quot;&gt;Lista de reproduccion&lt;/span&gt;" style="ellipse;whiteSpace=wrap;html=1;align=center;" vertex="1" parent="1">
          <mxGeometry x="430" y="60" width="100" height="40" as="geometry" />
        </mxCell>
        <mxCell id="xXruQWbL6GqGqKSQ3jyv-125" style="edgeStyle=orthogonalEdgeStyle;rounded=0;orthogonalLoop=1;jettySize=auto;html=1;exitX=1;exitY=0.5;exitDx=0;exitDy=0;entryX=0;entryY=0.5;entryDx=0;entryDy=0;" edge="1" parent="1" source="xXruQWbL6GqGqKSQ3jyv-4" target="xXruQWbL6GqGqKSQ3jyv-6">
          <mxGeometry relative="1" as="geometry" />
        </mxCell>
        <mxCell id="xXruQWbL6GqGqKSQ3jyv-4" value="&lt;span style=&quot;border-bottom: 1px dotted&quot;&gt;Historial&lt;/span&gt;" style="ellipse;whiteSpace=wrap;html=1;align=center;" vertex="1" parent="1">
          <mxGeometry x="430" y="220" width="100" height="40" as="geometry" />
        </mxCell>
        <mxCell id="xXruQWbL6GqGqKSQ3jyv-25" style="edgeStyle=orthogonalEdgeStyle;rounded=0;orthogonalLoop=1;jettySize=auto;html=1;exitX=0;exitY=0.5;exitDx=0;exitDy=0;entryX=1;entryY=0.5;entryDx=0;entryDy=0;" edge="1" parent="1" source="xXruQWbL6GqGqKSQ3jyv-5" target="xXruQWbL6GqGqKSQ3jyv-10">
          <mxGeometry relative="1" as="geometry" />
        </mxCell>
        <mxCell id="xXruQWbL6GqGqKSQ3jyv-29" style="edgeStyle=orthogonalEdgeStyle;rounded=0;orthogonalLoop=1;jettySize=auto;html=1;exitX=1;exitY=0.5;exitDx=0;exitDy=0;" edge="1" parent="1" source="xXruQWbL6GqGqKSQ3jyv-5" target="xXruQWbL6GqGqKSQ3jyv-11">
          <mxGeometry relative="1" as="geometry" />
        </mxCell>
        <mxCell id="xXruQWbL6GqGqKSQ3jyv-44" value="" style="edgeStyle=orthogonalEdgeStyle;rounded=0;orthogonalLoop=1;jettySize=auto;html=1;" edge="1" parent="1" source="xXruQWbL6GqGqKSQ3jyv-5" target="xXruQWbL6GqGqKSQ3jyv-42">
          <mxGeometry relative="1" as="geometry" />
        </mxCell>
        <mxCell id="xXruQWbL6GqGqKSQ3jyv-5" value="Canales" style="ellipse;whiteSpace=wrap;html=1;align=center;" vertex="1" parent="1">
          <mxGeometry x="450" y="390" width="100" height="40" as="geometry" />
        </mxCell>
        <mxCell id="xXruQWbL6GqGqKSQ3jyv-31" style="edgeStyle=orthogonalEdgeStyle;rounded=0;orthogonalLoop=1;jettySize=auto;html=1;exitX=1;exitY=0.5;exitDx=0;exitDy=0;entryX=0.5;entryY=0;entryDx=0;entryDy=0;" edge="1" parent="1" source="xXruQWbL6GqGqKSQ3jyv-6" target="xXruQWbL6GqGqKSQ3jyv-8">
          <mxGeometry relative="1" as="geometry" />
        </mxCell>
        <mxCell id="xXruQWbL6GqGqKSQ3jyv-6" value="Tiene" style="shape=rhombus;perimeter=rhombusPerimeter;whiteSpace=wrap;html=1;align=center;" vertex="1" parent="1">
          <mxGeometry x="640" y="210" width="120" height="60" as="geometry" />
        </mxCell>
        <mxCell id="xXruQWbL6GqGqKSQ3jyv-7" value="Subscripciones" style="ellipse;whiteSpace=wrap;html=1;align=center;" vertex="1" parent="1">
          <mxGeometry x="100" y="390" width="100" height="40" as="geometry" />
        </mxCell>
        <mxCell id="xXruQWbL6GqGqKSQ3jyv-33" style="edgeStyle=orthogonalEdgeStyle;rounded=0;orthogonalLoop=1;jettySize=auto;html=1;exitX=1;exitY=0.5;exitDx=0;exitDy=0;entryX=0;entryY=0.5;entryDx=0;entryDy=0;" edge="1" parent="1" source="xXruQWbL6GqGqKSQ3jyv-8" target="xXruQWbL6GqGqKSQ3jyv-14">
          <mxGeometry relative="1" as="geometry" />
        </mxCell>
        <mxCell id="xXruQWbL6GqGqKSQ3jyv-8" value="Video" style="ellipse;whiteSpace=wrap;html=1;align=center;" vertex="1" parent="1">
          <mxGeometry x="860" y="330" width="100" height="40" as="geometry" />
        </mxCell>
        <mxCell id="xXruQWbL6GqGqKSQ3jyv-30" style="edgeStyle=orthogonalEdgeStyle;rounded=0;orthogonalLoop=1;jettySize=auto;html=1;exitX=1;exitY=0.5;exitDx=0;exitDy=0;entryX=0.5;entryY=0;entryDx=0;entryDy=0;" edge="1" parent="1" source="xXruQWbL6GqGqKSQ3jyv-9" target="xXruQWbL6GqGqKSQ3jyv-8">
          <mxGeometry relative="1" as="geometry" />
        </mxCell>
        <mxCell id="xXruQWbL6GqGqKSQ3jyv-135" value="" style="edgeStyle=orthogonalEdgeStyle;rounded=0;orthogonalLoop=1;jettySize=auto;html=1;" edge="1" parent="1" source="xXruQWbL6GqGqKSQ3jyv-9" target="xXruQWbL6GqGqKSQ3jyv-134">
          <mxGeometry relative="1" as="geometry" />
        </mxCell>
        <mxCell id="xXruQWbL6GqGqKSQ3jyv-9" value="Tiene" style="shape=rhombus;perimeter=rhombusPerimeter;whiteSpace=wrap;html=1;align=center;" vertex="1" parent="1">
          <mxGeometry x="620" y="50" width="120" height="60" as="geometry" />
        </mxCell>
        <mxCell id="xXruQWbL6GqGqKSQ3jyv-26" value="" style="edgeStyle=orthogonalEdgeStyle;rounded=0;orthogonalLoop=1;jettySize=auto;html=1;" edge="1" parent="1" source="xXruQWbL6GqGqKSQ3jyv-10" target="xXruQWbL6GqGqKSQ3jyv-7">
          <mxGeometry relative="1" as="geometry" />
        </mxCell>
        <mxCell id="xXruQWbL6GqGqKSQ3jyv-10" value="Tiene" style="shape=rhombus;perimeter=rhombusPerimeter;whiteSpace=wrap;html=1;align=center;" vertex="1" parent="1">
          <mxGeometry x="260" y="380" width="120" height="60" as="geometry" />
        </mxCell>
        <mxCell id="xXruQWbL6GqGqKSQ3jyv-32" style="edgeStyle=orthogonalEdgeStyle;rounded=0;orthogonalLoop=1;jettySize=auto;html=1;exitX=1;exitY=0.5;exitDx=0;exitDy=0;entryX=0.5;entryY=1;entryDx=0;entryDy=0;" edge="1" parent="1" source="xXruQWbL6GqGqKSQ3jyv-11" target="xXruQWbL6GqGqKSQ3jyv-8">
          <mxGeometry relative="1" as="geometry" />
        </mxCell>
        <mxCell id="xXruQWbL6GqGqKSQ3jyv-11" value="Tiene" style="shape=rhombus;perimeter=rhombusPerimeter;whiteSpace=wrap;html=1;align=center;" vertex="1" parent="1">
          <mxGeometry x="650" y="380" width="120" height="60" as="geometry" />
        </mxCell>
        <mxCell id="xXruQWbL6GqGqKSQ3jyv-221" style="edgeStyle=orthogonalEdgeStyle;rounded=0;orthogonalLoop=1;jettySize=auto;html=1;exitX=0.5;exitY=1;exitDx=0;exitDy=0;entryX=1;entryY=0;entryDx=0;entryDy=0;" edge="1" parent="1" source="xXruQWbL6GqGqKSQ3jyv-12" target="xXruQWbL6GqGqKSQ3jyv-15">
          <mxGeometry relative="1" as="geometry" />
        </mxCell>
        <mxCell id="xXruQWbL6GqGqKSQ3jyv-12" value="Likes o dislikes" style="ellipse;whiteSpace=wrap;html=1;align=center;fontStyle=4;" vertex="1" parent="1">
          <mxGeometry x="1250" y="330" width="100" height="40" as="geometry" />
        </mxCell>
        <mxCell id="xXruQWbL6GqGqKSQ3jyv-34" style="edgeStyle=orthogonalEdgeStyle;rounded=0;orthogonalLoop=1;jettySize=auto;html=1;exitX=1;exitY=0.5;exitDx=0;exitDy=0;" edge="1" parent="1" source="xXruQWbL6GqGqKSQ3jyv-14" target="xXruQWbL6GqGqKSQ3jyv-12">
          <mxGeometry relative="1" as="geometry" />
        </mxCell>
        <mxCell id="xXruQWbL6GqGqKSQ3jyv-35" style="edgeStyle=orthogonalEdgeStyle;rounded=0;orthogonalLoop=1;jettySize=auto;html=1;exitX=0.5;exitY=1;exitDx=0;exitDy=0;entryX=0.5;entryY=0;entryDx=0;entryDy=0;" edge="1" parent="1" source="xXruQWbL6GqGqKSQ3jyv-14" target="xXruQWbL6GqGqKSQ3jyv-15">
          <mxGeometry relative="1" as="geometry" />
        </mxCell>
        <mxCell id="xXruQWbL6GqGqKSQ3jyv-14" value="Tiene" style="shape=rhombus;perimeter=rhombusPerimeter;whiteSpace=wrap;html=1;align=center;" vertex="1" parent="1">
          <mxGeometry x="1040" y="320" width="120" height="60" as="geometry" />
        </mxCell>
        <mxCell id="xXruQWbL6GqGqKSQ3jyv-37" value="" style="edgeStyle=orthogonalEdgeStyle;rounded=0;orthogonalLoop=1;jettySize=auto;html=1;" edge="1" parent="1" source="xXruQWbL6GqGqKSQ3jyv-15" target="xXruQWbL6GqGqKSQ3jyv-18">
          <mxGeometry relative="1" as="geometry" />
        </mxCell>
        <mxCell id="xXruQWbL6GqGqKSQ3jyv-15" value="&lt;span style=&quot;border-bottom: 1px dotted&quot;&gt;Comentarios&lt;/span&gt;" style="ellipse;whiteSpace=wrap;html=1;align=center;" vertex="1" parent="1">
          <mxGeometry x="1050" y="470" width="100" height="40" as="geometry" />
        </mxCell>
        <mxCell id="xXruQWbL6GqGqKSQ3jyv-16" value="Likes o dislikes" style="ellipse;whiteSpace=wrap;html=1;align=center;fontStyle=4;" vertex="1" parent="1">
          <mxGeometry x="1130" y="700" width="100" height="40" as="geometry" />
        </mxCell>
        <mxCell id="xXruQWbL6GqGqKSQ3jyv-38" style="edgeStyle=orthogonalEdgeStyle;rounded=0;orthogonalLoop=1;jettySize=auto;html=1;exitX=1;exitY=1;exitDx=0;exitDy=0;entryX=0.5;entryY=0;entryDx=0;entryDy=0;" edge="1" parent="1" source="xXruQWbL6GqGqKSQ3jyv-18" target="xXruQWbL6GqGqKSQ3jyv-16">
          <mxGeometry relative="1" as="geometry" />
        </mxCell>
        <mxCell id="xXruQWbL6GqGqKSQ3jyv-39" style="edgeStyle=orthogonalEdgeStyle;rounded=0;orthogonalLoop=1;jettySize=auto;html=1;exitX=0;exitY=1;exitDx=0;exitDy=0;entryX=0.5;entryY=0;entryDx=0;entryDy=0;" edge="1" parent="1" source="xXruQWbL6GqGqKSQ3jyv-18" target="xXruQWbL6GqGqKSQ3jyv-19">
          <mxGeometry relative="1" as="geometry" />
        </mxCell>
        <mxCell id="xXruQWbL6GqGqKSQ3jyv-18" value="Tiene" style="shape=rhombus;perimeter=rhombusPerimeter;whiteSpace=wrap;html=1;align=center;" vertex="1" parent="1">
          <mxGeometry x="1040" y="585" width="120" height="60" as="geometry" />
        </mxCell>
        <mxCell id="xXruQWbL6GqGqKSQ3jyv-220" style="edgeStyle=orthogonalEdgeStyle;rounded=0;orthogonalLoop=1;jettySize=auto;html=1;exitX=0;exitY=0;exitDx=0;exitDy=0;entryX=0;entryY=0.5;entryDx=0;entryDy=0;" edge="1" parent="1" source="xXruQWbL6GqGqKSQ3jyv-19" target="xXruQWbL6GqGqKSQ3jyv-15">
          <mxGeometry relative="1" as="geometry" />
        </mxCell>
        <mxCell id="xXruQWbL6GqGqKSQ3jyv-19" value="Respuesta" style="ellipse;whiteSpace=wrap;html=1;align=center;" vertex="1" parent="1">
          <mxGeometry x="980" y="700" width="100" height="40" as="geometry" />
        </mxCell>
        <mxCell id="xXruQWbL6GqGqKSQ3jyv-45" value="" style="edgeStyle=orthogonalEdgeStyle;rounded=0;orthogonalLoop=1;jettySize=auto;html=1;" edge="1" parent="1" source="xXruQWbL6GqGqKSQ3jyv-42" target="xXruQWbL6GqGqKSQ3jyv-43">
          <mxGeometry relative="1" as="geometry" />
        </mxCell>
        <mxCell id="xXruQWbL6GqGqKSQ3jyv-42" value="Tiene" style="shape=rhombus;perimeter=rhombusPerimeter;whiteSpace=wrap;html=1;align=center;" vertex="1" parent="1">
          <mxGeometry x="440" y="480" width="120" height="60" as="geometry" />
        </mxCell>
        <mxCell id="xXruQWbL6GqGqKSQ3jyv-101" style="edgeStyle=orthogonalEdgeStyle;rounded=0;orthogonalLoop=1;jettySize=auto;html=1;exitX=1;exitY=0.5;exitDx=0;exitDy=0;entryX=0;entryY=0.5;entryDx=0;entryDy=0;" edge="1" parent="1" source="xXruQWbL6GqGqKSQ3jyv-43" target="xXruQWbL6GqGqKSQ3jyv-97">
          <mxGeometry relative="1" as="geometry" />
        </mxCell>
        <mxCell id="xXruQWbL6GqGqKSQ3jyv-43" value="Clasificacion" style="ellipse;whiteSpace=wrap;html=1;align=center;" vertex="1" parent="1">
          <mxGeometry x="450" y="580" width="100" height="40" as="geometry" />
        </mxCell>
        <mxCell id="xXruQWbL6GqGqKSQ3jyv-60" value="" style="edgeStyle=orthogonalEdgeStyle;rounded=0;orthogonalLoop=1;jettySize=auto;html=1;" edge="1" parent="1" source="xXruQWbL6GqGqKSQ3jyv-56" target="xXruQWbL6GqGqKSQ3jyv-59">
          <mxGeometry relative="1" as="geometry" />
        </mxCell>
        <mxCell id="xXruQWbL6GqGqKSQ3jyv-56" value="&lt;span style=&quot;border-bottom: 1px dotted&quot;&gt;Transmisiones&lt;/span&gt;" style="ellipse;whiteSpace=wrap;html=1;align=center;" vertex="1" parent="1">
          <mxGeometry x="430" y="-100" width="100" height="40" as="geometry" />
        </mxCell>
        <mxCell id="xXruQWbL6GqGqKSQ3jyv-61" style="edgeStyle=orthogonalEdgeStyle;rounded=0;orthogonalLoop=1;jettySize=auto;html=1;exitX=1;exitY=0.5;exitDx=0;exitDy=0;" edge="1" parent="1" source="xXruQWbL6GqGqKSQ3jyv-59" target="xXruQWbL6GqGqKSQ3jyv-8">
          <mxGeometry relative="1" as="geometry" />
        </mxCell>
        <mxCell id="xXruQWbL6GqGqKSQ3jyv-59" value="Guarda" style="shape=rhombus;perimeter=rhombusPerimeter;whiteSpace=wrap;html=1;align=center;" vertex="1" parent="1">
          <mxGeometry x="610" y="-110" width="120" height="60" as="geometry" />
        </mxCell>
        <mxCell id="xXruQWbL6GqGqKSQ3jyv-233" value="" style="edgeStyle=orthogonalEdgeStyle;rounded=0;orthogonalLoop=1;jettySize=auto;html=1;" edge="1" parent="1" source="xXruQWbL6GqGqKSQ3jyv-70" target="xXruQWbL6GqGqKSQ3jyv-231">
          <mxGeometry relative="1" as="geometry" />
        </mxCell>
        <mxCell id="xXruQWbL6GqGqKSQ3jyv-70" value="Membresia" style="ellipse;whiteSpace=wrap;html=1;align=center;" vertex="1" parent="1">
          <mxGeometry x="-130" y="50" width="100" height="40" as="geometry" />
        </mxCell>
        <mxCell id="xXruQWbL6GqGqKSQ3jyv-236" style="edgeStyle=orthogonalEdgeStyle;rounded=0;orthogonalLoop=1;jettySize=auto;html=1;exitX=0;exitY=0.5;exitDx=0;exitDy=0;entryX=1;entryY=0.5;entryDx=0;entryDy=0;" edge="1" parent="1" source="xXruQWbL6GqGqKSQ3jyv-72" target="xXruQWbL6GqGqKSQ3jyv-70">
          <mxGeometry relative="1" as="geometry" />
        </mxCell>
        <mxCell id="xXruQWbL6GqGqKSQ3jyv-72" value="idMembresia" style="ellipse;whiteSpace=wrap;html=1;align=center;dashed=1;" vertex="1" parent="1">
          <mxGeometry x="40" y="30" width="80" height="30" as="geometry" />
        </mxCell>
        <mxCell id="xXruQWbL6GqGqKSQ3jyv-235" style="edgeStyle=orthogonalEdgeStyle;rounded=0;orthogonalLoop=1;jettySize=auto;html=1;exitX=0;exitY=0.5;exitDx=0;exitDy=0;entryX=1;entryY=0.5;entryDx=0;entryDy=0;" edge="1" parent="1" source="xXruQWbL6GqGqKSQ3jyv-73" target="xXruQWbL6GqGqKSQ3jyv-70">
          <mxGeometry relative="1" as="geometry" />
        </mxCell>
        <mxCell id="xXruQWbL6GqGqKSQ3jyv-73" value="TipoMembresia" style="ellipse;whiteSpace=wrap;html=1;align=center;dashed=1;" vertex="1" parent="1">
          <mxGeometry x="32.5" y="80" width="95" height="30" as="geometry" />
        </mxCell>
        <mxCell id="xXruQWbL6GqGqKSQ3jyv-225" value="" style="edgeStyle=orthogonalEdgeStyle;rounded=0;orthogonalLoop=1;jettySize=auto;html=1;" edge="1" parent="1" source="xXruQWbL6GqGqKSQ3jyv-76" target="xXruQWbL6GqGqKSQ3jyv-1">
          <mxGeometry relative="1" as="geometry" />
        </mxCell>
        <mxCell id="xXruQWbL6GqGqKSQ3jyv-76" value="idUsuario" style="ellipse;whiteSpace=wrap;html=1;align=center;dashed=1;" vertex="1" parent="1">
          <mxGeometry x="-270" y="230" width="70" height="20" as="geometry" />
        </mxCell>
        <mxCell id="xXruQWbL6GqGqKSQ3jyv-230" style="edgeStyle=orthogonalEdgeStyle;rounded=0;orthogonalLoop=1;jettySize=auto;html=1;exitX=1;exitY=0.5;exitDx=0;exitDy=0;entryX=0;entryY=0.5;entryDx=0;entryDy=0;" edge="1" parent="1" source="xXruQWbL6GqGqKSQ3jyv-77" target="xXruQWbL6GqGqKSQ3jyv-1">
          <mxGeometry relative="1" as="geometry" />
        </mxCell>
        <mxCell id="xXruQWbL6GqGqKSQ3jyv-77" value="Nombre" style="ellipse;whiteSpace=wrap;html=1;align=center;dashed=1;" vertex="1" parent="1">
          <mxGeometry x="-270" y="260" width="70" height="20" as="geometry" />
        </mxCell>
        <mxCell id="xXruQWbL6GqGqKSQ3jyv-229" style="edgeStyle=orthogonalEdgeStyle;rounded=0;orthogonalLoop=1;jettySize=auto;html=1;exitX=1;exitY=0.5;exitDx=0;exitDy=0;entryX=0;entryY=0.5;entryDx=0;entryDy=0;" edge="1" parent="1" source="xXruQWbL6GqGqKSQ3jyv-78" target="xXruQWbL6GqGqKSQ3jyv-1">
          <mxGeometry relative="1" as="geometry" />
        </mxCell>
        <mxCell id="xXruQWbL6GqGqKSQ3jyv-78" value="Edad" style="ellipse;whiteSpace=wrap;html=1;align=center;dashed=1;" vertex="1" parent="1">
          <mxGeometry x="-270" y="290" width="70" height="20" as="geometry" />
        </mxCell>
        <mxCell id="xXruQWbL6GqGqKSQ3jyv-91" style="edgeStyle=orthogonalEdgeStyle;rounded=0;orthogonalLoop=1;jettySize=auto;html=1;exitX=1;exitY=0.5;exitDx=0;exitDy=0;entryX=0.5;entryY=1;entryDx=0;entryDy=0;" edge="1" parent="1" source="xXruQWbL6GqGqKSQ3jyv-87" target="xXruQWbL6GqGqKSQ3jyv-7">
          <mxGeometry relative="1" as="geometry" />
        </mxCell>
        <mxCell id="xXruQWbL6GqGqKSQ3jyv-87" value="idSubscripciones" style="ellipse;whiteSpace=wrap;html=1;align=center;dashed=1;" vertex="1" parent="1">
          <mxGeometry y="450" width="100" height="20" as="geometry" />
        </mxCell>
        <mxCell id="xXruQWbL6GqGqKSQ3jyv-92" style="edgeStyle=orthogonalEdgeStyle;rounded=0;orthogonalLoop=1;jettySize=auto;html=1;exitX=1;exitY=0.5;exitDx=0;exitDy=0;" edge="1" parent="1" source="xXruQWbL6GqGqKSQ3jyv-88">
          <mxGeometry relative="1" as="geometry">
            <mxPoint x="150" y="430" as="targetPoint" />
          </mxGeometry>
        </mxCell>
        <mxCell id="xXruQWbL6GqGqKSQ3jyv-88" value="idCanal" style="ellipse;whiteSpace=wrap;html=1;align=center;dashed=1;" vertex="1" parent="1">
          <mxGeometry x="30" y="480" width="70" height="20" as="geometry" />
        </mxCell>
        <mxCell id="xXruQWbL6GqGqKSQ3jyv-93" style="edgeStyle=orthogonalEdgeStyle;rounded=0;orthogonalLoop=1;jettySize=auto;html=1;exitX=1;exitY=0.5;exitDx=0;exitDy=0;" edge="1" parent="1" source="xXruQWbL6GqGqKSQ3jyv-90">
          <mxGeometry relative="1" as="geometry">
            <mxPoint x="150" y="430" as="targetPoint" />
          </mxGeometry>
        </mxCell>
        <mxCell id="xXruQWbL6GqGqKSQ3jyv-90" value="idUsuario" style="ellipse;whiteSpace=wrap;html=1;align=center;dashed=1;" vertex="1" parent="1">
          <mxGeometry x="30" y="510" width="70" height="20" as="geometry" />
        </mxCell>
        <mxCell id="xXruQWbL6GqGqKSQ3jyv-105" style="edgeStyle=orthogonalEdgeStyle;rounded=0;orthogonalLoop=1;jettySize=auto;html=1;exitX=1;exitY=0.5;exitDx=0;exitDy=0;entryX=0.5;entryY=1;entryDx=0;entryDy=0;" edge="1" parent="1" source="xXruQWbL6GqGqKSQ3jyv-94" target="xXruQWbL6GqGqKSQ3jyv-43">
          <mxGeometry relative="1" as="geometry" />
        </mxCell>
        <mxCell id="xXruQWbL6GqGqKSQ3jyv-94" value="idClasificacion" style="ellipse;whiteSpace=wrap;html=1;align=center;dashed=1;" vertex="1" parent="1">
          <mxGeometry x="360" y="650" width="100" height="20" as="geometry" />
        </mxCell>
        <mxCell id="xXruQWbL6GqGqKSQ3jyv-106" style="edgeStyle=orthogonalEdgeStyle;rounded=0;orthogonalLoop=1;jettySize=auto;html=1;exitX=1;exitY=0.5;exitDx=0;exitDy=0;" edge="1" parent="1" source="xXruQWbL6GqGqKSQ3jyv-95">
          <mxGeometry relative="1" as="geometry">
            <mxPoint x="500" y="620" as="targetPoint" />
          </mxGeometry>
        </mxCell>
        <mxCell id="xXruQWbL6GqGqKSQ3jyv-95" value="Clasificacion" style="ellipse;whiteSpace=wrap;html=1;align=center;dashed=1;" vertex="1" parent="1">
          <mxGeometry x="370" y="680" width="90" height="20" as="geometry" />
        </mxCell>
        <mxCell id="xXruQWbL6GqGqKSQ3jyv-107" style="edgeStyle=orthogonalEdgeStyle;rounded=0;orthogonalLoop=1;jettySize=auto;html=1;exitX=1;exitY=0.5;exitDx=0;exitDy=0;" edge="1" parent="1" source="xXruQWbL6GqGqKSQ3jyv-96">
          <mxGeometry relative="1" as="geometry">
            <mxPoint x="500" y="620" as="targetPoint" />
          </mxGeometry>
        </mxCell>
        <mxCell id="xXruQWbL6GqGqKSQ3jyv-96" value="idPublico" style="ellipse;whiteSpace=wrap;html=1;align=center;dashed=1;" vertex="1" parent="1">
          <mxGeometry x="390" y="710" width="70" height="20" as="geometry" />
        </mxCell>
        <mxCell id="xXruQWbL6GqGqKSQ3jyv-104" value="" style="edgeStyle=orthogonalEdgeStyle;rounded=0;orthogonalLoop=1;jettySize=auto;html=1;" edge="1" parent="1" source="xXruQWbL6GqGqKSQ3jyv-97" target="xXruQWbL6GqGqKSQ3jyv-99">
          <mxGeometry relative="1" as="geometry" />
        </mxCell>
        <mxCell id="xXruQWbL6GqGqKSQ3jyv-97" value="Tiene" style="shape=rhombus;perimeter=rhombusPerimeter;whiteSpace=wrap;html=1;align=center;" vertex="1" parent="1">
          <mxGeometry x="620" y="570" width="120" height="60" as="geometry" />
        </mxCell>
        <mxCell id="xXruQWbL6GqGqKSQ3jyv-99" value="Publico" style="ellipse;whiteSpace=wrap;html=1;align=center;" vertex="1" parent="1">
          <mxGeometry x="630" y="680" width="100" height="40" as="geometry" />
        </mxCell>
        <mxCell id="xXruQWbL6GqGqKSQ3jyv-110" style="edgeStyle=orthogonalEdgeStyle;rounded=0;orthogonalLoop=1;jettySize=auto;html=1;exitX=1;exitY=0.5;exitDx=0;exitDy=0;entryX=1;entryY=1;entryDx=0;entryDy=0;" edge="1" parent="1" source="xXruQWbL6GqGqKSQ3jyv-108" target="xXruQWbL6GqGqKSQ3jyv-99">
          <mxGeometry relative="1" as="geometry" />
        </mxCell>
        <mxCell id="xXruQWbL6GqGqKSQ3jyv-108" value="idPublico" style="ellipse;whiteSpace=wrap;html=1;align=center;dashed=1;" vertex="1" parent="1">
          <mxGeometry x="600" y="750" width="70" height="20" as="geometry" />
        </mxCell>
        <mxCell id="xXruQWbL6GqGqKSQ3jyv-112" style="edgeStyle=orthogonalEdgeStyle;rounded=0;orthogonalLoop=1;jettySize=auto;html=1;exitX=1;exitY=0.5;exitDx=0;exitDy=0;entryX=1;entryY=1;entryDx=0;entryDy=0;" edge="1" parent="1" source="xXruQWbL6GqGqKSQ3jyv-109" target="xXruQWbL6GqGqKSQ3jyv-99">
          <mxGeometry relative="1" as="geometry" />
        </mxCell>
        <mxCell id="xXruQWbL6GqGqKSQ3jyv-109" value="Publico" style="ellipse;whiteSpace=wrap;html=1;align=center;dashed=1;" vertex="1" parent="1">
          <mxGeometry x="600" y="790" width="70" height="20" as="geometry" />
        </mxCell>
        <mxCell id="xXruQWbL6GqGqKSQ3jyv-122" style="edgeStyle=orthogonalEdgeStyle;rounded=0;orthogonalLoop=1;jettySize=auto;html=1;exitX=1;exitY=0.5;exitDx=0;exitDy=0;entryX=0;entryY=1;entryDx=0;entryDy=0;" edge="1" parent="1" source="xXruQWbL6GqGqKSQ3jyv-113" target="xXruQWbL6GqGqKSQ3jyv-5">
          <mxGeometry relative="1" as="geometry">
            <Array as="points">
              <mxPoint x="410" y="480" />
              <mxPoint x="410" y="424" />
            </Array>
          </mxGeometry>
        </mxCell>
        <mxCell id="xXruQWbL6GqGqKSQ3jyv-113" value="idUsuario" style="ellipse;whiteSpace=wrap;html=1;align=center;dashed=1;" vertex="1" parent="1">
          <mxGeometry x="277.5" y="470" width="70" height="20" as="geometry" />
        </mxCell>
        <mxCell id="xXruQWbL6GqGqKSQ3jyv-120" style="edgeStyle=orthogonalEdgeStyle;rounded=0;orthogonalLoop=1;jettySize=auto;html=1;exitX=1;exitY=0.5;exitDx=0;exitDy=0;entryX=0;entryY=1;entryDx=0;entryDy=0;" edge="1" parent="1" source="xXruQWbL6GqGqKSQ3jyv-114" target="xXruQWbL6GqGqKSQ3jyv-5">
          <mxGeometry relative="1" as="geometry">
            <Array as="points">
              <mxPoint x="410" y="510" />
              <mxPoint x="410" y="424" />
            </Array>
          </mxGeometry>
        </mxCell>
        <mxCell id="xXruQWbL6GqGqKSQ3jyv-114" value="idClasificacion" style="ellipse;whiteSpace=wrap;html=1;align=center;dashed=1;" vertex="1" parent="1">
          <mxGeometry x="260" y="500" width="87.5" height="20" as="geometry" />
        </mxCell>
        <mxCell id="xXruQWbL6GqGqKSQ3jyv-119" style="edgeStyle=orthogonalEdgeStyle;rounded=0;orthogonalLoop=1;jettySize=auto;html=1;exitX=1;exitY=0.5;exitDx=0;exitDy=0;entryX=0;entryY=1;entryDx=0;entryDy=0;" edge="1" parent="1" source="xXruQWbL6GqGqKSQ3jyv-115" target="xXruQWbL6GqGqKSQ3jyv-5">
          <mxGeometry relative="1" as="geometry">
            <Array as="points">
              <mxPoint x="410" y="540" />
              <mxPoint x="410" y="424" />
            </Array>
          </mxGeometry>
        </mxCell>
        <mxCell id="xXruQWbL6GqGqKSQ3jyv-115" value="Nombre" style="ellipse;whiteSpace=wrap;html=1;align=center;dashed=1;" vertex="1" parent="1">
          <mxGeometry x="277.5" y="530" width="70" height="20" as="geometry" />
        </mxCell>
        <mxCell id="xXruQWbL6GqGqKSQ3jyv-118" style="edgeStyle=orthogonalEdgeStyle;rounded=0;orthogonalLoop=1;jettySize=auto;html=1;exitX=1;exitY=0.5;exitDx=0;exitDy=0;entryX=0;entryY=1;entryDx=0;entryDy=0;" edge="1" parent="1" source="xXruQWbL6GqGqKSQ3jyv-116" target="xXruQWbL6GqGqKSQ3jyv-5">
          <mxGeometry relative="1" as="geometry">
            <Array as="points">
              <mxPoint x="410" y="575" />
              <mxPoint x="410" y="424" />
            </Array>
          </mxGeometry>
        </mxCell>
        <mxCell id="xXruQWbL6GqGqKSQ3jyv-116" value="#Subscritores" style="ellipse;whiteSpace=wrap;html=1;align=center;dashed=1;" vertex="1" parent="1">
          <mxGeometry x="270" y="565" width="85" height="20" as="geometry" />
        </mxCell>
        <mxCell id="xXruQWbL6GqGqKSQ3jyv-130" style="edgeStyle=orthogonalEdgeStyle;rounded=0;orthogonalLoop=1;jettySize=auto;html=1;exitX=0;exitY=0.5;exitDx=0;exitDy=0;" edge="1" parent="1" source="xXruQWbL6GqGqKSQ3jyv-123">
          <mxGeometry relative="1" as="geometry">
            <mxPoint x="480" y="260.2380952380952" as="targetPoint" />
          </mxGeometry>
        </mxCell>
        <mxCell id="xXruQWbL6GqGqKSQ3jyv-123" value="idUsuario" style="ellipse;whiteSpace=wrap;html=1;align=center;dashed=1;" vertex="1" parent="1">
          <mxGeometry x="540" y="250" width="70" height="20" as="geometry" />
        </mxCell>
        <mxCell id="xXruQWbL6GqGqKSQ3jyv-129" style="edgeStyle=orthogonalEdgeStyle;rounded=0;orthogonalLoop=1;jettySize=auto;html=1;exitX=0;exitY=0.5;exitDx=0;exitDy=0;" edge="1" parent="1" source="xXruQWbL6GqGqKSQ3jyv-126">
          <mxGeometry relative="1" as="geometry">
            <mxPoint x="480" y="260" as="targetPoint" />
          </mxGeometry>
        </mxCell>
        <mxCell id="xXruQWbL6GqGqKSQ3jyv-126" value="idVideo" style="ellipse;whiteSpace=wrap;html=1;align=center;dashed=1;" vertex="1" parent="1">
          <mxGeometry x="540" y="280" width="70" height="20" as="geometry" />
        </mxCell>
        <mxCell id="xXruQWbL6GqGqKSQ3jyv-128" style="edgeStyle=orthogonalEdgeStyle;rounded=0;orthogonalLoop=1;jettySize=auto;html=1;exitX=0;exitY=0.5;exitDx=0;exitDy=0;entryX=0.5;entryY=1;entryDx=0;entryDy=0;" edge="1" parent="1" source="xXruQWbL6GqGqKSQ3jyv-127" target="xXruQWbL6GqGqKSQ3jyv-4">
          <mxGeometry relative="1" as="geometry" />
        </mxCell>
        <mxCell id="xXruQWbL6GqGqKSQ3jyv-127" value="Fecha" style="ellipse;whiteSpace=wrap;html=1;align=center;dashed=1;" vertex="1" parent="1">
          <mxGeometry x="540" y="310" width="70" height="20" as="geometry" />
        </mxCell>
        <mxCell id="xXruQWbL6GqGqKSQ3jyv-132" style="edgeStyle=orthogonalEdgeStyle;rounded=0;orthogonalLoop=1;jettySize=auto;html=1;exitX=1;exitY=0.5;exitDx=0;exitDy=0;" edge="1" parent="1" source="xXruQWbL6GqGqKSQ3jyv-131">
          <mxGeometry relative="1" as="geometry">
            <mxPoint x="480" y="260" as="targetPoint" />
          </mxGeometry>
        </mxCell>
        <mxCell id="xXruQWbL6GqGqKSQ3jyv-131" value="idHistorial" style="ellipse;whiteSpace=wrap;html=1;align=center;dashed=1;" vertex="1" parent="1">
          <mxGeometry x="380" y="270" width="70" height="20" as="geometry" />
        </mxCell>
        <mxCell id="xXruQWbL6GqGqKSQ3jyv-134" value="&lt;span style=&quot;border-bottom: 1px dotted&quot;&gt;Lista Videos&lt;/span&gt;" style="ellipse;whiteSpace=wrap;html=1;align=center;" vertex="1" parent="1">
          <mxGeometry x="630" y="130" width="100" height="30" as="geometry" />
        </mxCell>
        <mxCell id="xXruQWbL6GqGqKSQ3jyv-147" style="edgeStyle=orthogonalEdgeStyle;rounded=0;orthogonalLoop=1;jettySize=auto;html=1;exitX=1;exitY=0.5;exitDx=0;exitDy=0;entryX=0;entryY=0;entryDx=0;entryDy=0;" edge="1" parent="1" source="xXruQWbL6GqGqKSQ3jyv-136" target="xXruQWbL6GqGqKSQ3jyv-3">
          <mxGeometry relative="1" as="geometry" />
        </mxCell>
        <mxCell id="xXruQWbL6GqGqKSQ3jyv-136" value="idUsuario" style="ellipse;whiteSpace=wrap;html=1;align=center;dashed=1;" vertex="1" parent="1">
          <mxGeometry x="347.5" y="20" width="70" height="20" as="geometry" />
        </mxCell>
        <mxCell id="xXruQWbL6GqGqKSQ3jyv-146" style="edgeStyle=orthogonalEdgeStyle;rounded=0;orthogonalLoop=1;jettySize=auto;html=1;exitX=1;exitY=0.5;exitDx=0;exitDy=0;entryX=0;entryY=0;entryDx=0;entryDy=0;" edge="1" parent="1" source="xXruQWbL6GqGqKSQ3jyv-137" target="xXruQWbL6GqGqKSQ3jyv-3">
          <mxGeometry relative="1" as="geometry" />
        </mxCell>
        <mxCell id="xXruQWbL6GqGqKSQ3jyv-137" value="idListR" style="ellipse;whiteSpace=wrap;html=1;align=center;dashed=1;" vertex="1" parent="1">
          <mxGeometry x="347.5" y="50" width="70" height="20" as="geometry" />
        </mxCell>
        <mxCell id="xXruQWbL6GqGqKSQ3jyv-144" style="edgeStyle=orthogonalEdgeStyle;rounded=0;orthogonalLoop=1;jettySize=auto;html=1;exitX=0.5;exitY=1;exitDx=0;exitDy=0;entryX=0.5;entryY=0;entryDx=0;entryDy=0;" edge="1" parent="1" source="xXruQWbL6GqGqKSQ3jyv-138" target="xXruQWbL6GqGqKSQ3jyv-3">
          <mxGeometry relative="1" as="geometry" />
        </mxCell>
        <mxCell id="xXruQWbL6GqGqKSQ3jyv-138" value="Nombre" style="ellipse;whiteSpace=wrap;html=1;align=center;dashed=1;" vertex="1" parent="1">
          <mxGeometry x="445" width="70" height="20" as="geometry" />
        </mxCell>
        <mxCell id="xXruQWbL6GqGqKSQ3jyv-148" style="edgeStyle=orthogonalEdgeStyle;rounded=0;orthogonalLoop=1;jettySize=auto;html=1;exitX=0;exitY=1;exitDx=0;exitDy=0;entryX=1;entryY=0;entryDx=0;entryDy=0;" edge="1" parent="1" source="xXruQWbL6GqGqKSQ3jyv-139" target="xXruQWbL6GqGqKSQ3jyv-3">
          <mxGeometry relative="1" as="geometry" />
        </mxCell>
        <mxCell id="xXruQWbL6GqGqKSQ3jyv-139" value="idListVideo" style="ellipse;whiteSpace=wrap;html=1;align=center;dashed=1;" vertex="1" parent="1">
          <mxGeometry x="540" width="70" height="20" as="geometry" />
        </mxCell>
        <mxCell id="xXruQWbL6GqGqKSQ3jyv-142" style="edgeStyle=orthogonalEdgeStyle;rounded=0;orthogonalLoop=1;jettySize=auto;html=1;exitX=1;exitY=0.5;exitDx=0;exitDy=0;" edge="1" parent="1" source="xXruQWbL6GqGqKSQ3jyv-140" target="xXruQWbL6GqGqKSQ3jyv-134">
          <mxGeometry relative="1" as="geometry" />
        </mxCell>
        <mxCell id="xXruQWbL6GqGqKSQ3jyv-140" value="idListVideo" style="ellipse;whiteSpace=wrap;html=1;align=center;dashed=1;" vertex="1" parent="1">
          <mxGeometry x="540" y="135" width="70" height="20" as="geometry" />
        </mxCell>
        <mxCell id="xXruQWbL6GqGqKSQ3jyv-143" style="edgeStyle=orthogonalEdgeStyle;rounded=0;orthogonalLoop=1;jettySize=auto;html=1;exitX=1;exitY=0.5;exitDx=0;exitDy=0;entryX=0;entryY=1;entryDx=0;entryDy=0;" edge="1" parent="1" source="xXruQWbL6GqGqKSQ3jyv-141" target="xXruQWbL6GqGqKSQ3jyv-134">
          <mxGeometry relative="1" as="geometry" />
        </mxCell>
        <mxCell id="xXruQWbL6GqGqKSQ3jyv-141" value="idVideo" style="ellipse;whiteSpace=wrap;html=1;align=center;dashed=1;" vertex="1" parent="1">
          <mxGeometry x="540" y="160" width="70" height="20" as="geometry" />
        </mxCell>
        <mxCell id="xXruQWbL6GqGqKSQ3jyv-153" style="edgeStyle=orthogonalEdgeStyle;rounded=0;orthogonalLoop=1;jettySize=auto;html=1;exitX=1;exitY=0.5;exitDx=0;exitDy=0;" edge="1" parent="1" source="xXruQWbL6GqGqKSQ3jyv-149">
          <mxGeometry relative="1" as="geometry">
            <mxPoint x="480" y="-100" as="targetPoint" />
          </mxGeometry>
        </mxCell>
        <mxCell id="xXruQWbL6GqGqKSQ3jyv-149" value="idCanal" style="ellipse;whiteSpace=wrap;html=1;align=center;dashed=1;" vertex="1" parent="1">
          <mxGeometry x="370" y="-170" width="70" height="20" as="geometry" />
        </mxCell>
        <mxCell id="xXruQWbL6GqGqKSQ3jyv-154" style="edgeStyle=orthogonalEdgeStyle;rounded=0;orthogonalLoop=1;jettySize=auto;html=1;exitX=1;exitY=0.5;exitDx=0;exitDy=0;" edge="1" parent="1" source="xXruQWbL6GqGqKSQ3jyv-150" target="xXruQWbL6GqGqKSQ3jyv-56">
          <mxGeometry relative="1" as="geometry" />
        </mxCell>
        <mxCell id="xXruQWbL6GqGqKSQ3jyv-150" value="idTransm" style="ellipse;whiteSpace=wrap;html=1;align=center;dashed=1;" vertex="1" parent="1">
          <mxGeometry x="370" y="-200" width="70" height="20" as="geometry" />
        </mxCell>
        <mxCell id="xXruQWbL6GqGqKSQ3jyv-152" style="edgeStyle=orthogonalEdgeStyle;rounded=0;orthogonalLoop=1;jettySize=auto;html=1;exitX=1;exitY=0.5;exitDx=0;exitDy=0;entryX=0.5;entryY=0;entryDx=0;entryDy=0;" edge="1" parent="1" source="xXruQWbL6GqGqKSQ3jyv-151" target="xXruQWbL6GqGqKSQ3jyv-56">
          <mxGeometry relative="1" as="geometry" />
        </mxCell>
        <mxCell id="xXruQWbL6GqGqKSQ3jyv-151" value="Nombre" style="ellipse;whiteSpace=wrap;html=1;align=center;dashed=1;" vertex="1" parent="1">
          <mxGeometry x="370" y="-140" width="70" height="20" as="geometry" />
        </mxCell>
        <mxCell id="xXruQWbL6GqGqKSQ3jyv-163" style="edgeStyle=orthogonalEdgeStyle;rounded=0;orthogonalLoop=1;jettySize=auto;html=1;exitX=1;exitY=0.5;exitDx=0;exitDy=0;entryX=1;entryY=1;entryDx=0;entryDy=0;" edge="1" parent="1" source="xXruQWbL6GqGqKSQ3jyv-156" target="xXruQWbL6GqGqKSQ3jyv-8">
          <mxGeometry relative="1" as="geometry" />
        </mxCell>
        <mxCell id="xXruQWbL6GqGqKSQ3jyv-156" value="idVideo" style="ellipse;whiteSpace=wrap;html=1;align=center;dashed=1;" vertex="1" parent="1">
          <mxGeometry x="850" y="430" width="70" height="20" as="geometry" />
        </mxCell>
        <mxCell id="xXruQWbL6GqGqKSQ3jyv-164" style="edgeStyle=orthogonalEdgeStyle;rounded=0;orthogonalLoop=1;jettySize=auto;html=1;exitX=1;exitY=0.5;exitDx=0;exitDy=0;entryX=1;entryY=1;entryDx=0;entryDy=0;" edge="1" parent="1" source="xXruQWbL6GqGqKSQ3jyv-157" target="xXruQWbL6GqGqKSQ3jyv-8">
          <mxGeometry relative="1" as="geometry" />
        </mxCell>
        <mxCell id="xXruQWbL6GqGqKSQ3jyv-157" value="idCanal" style="ellipse;whiteSpace=wrap;html=1;align=center;dashed=1;" vertex="1" parent="1">
          <mxGeometry x="850" y="460" width="70" height="20" as="geometry" />
        </mxCell>
        <mxCell id="xXruQWbL6GqGqKSQ3jyv-166" style="edgeStyle=orthogonalEdgeStyle;rounded=0;orthogonalLoop=1;jettySize=auto;html=1;exitX=1;exitY=0.5;exitDx=0;exitDy=0;entryX=1;entryY=1;entryDx=0;entryDy=0;" edge="1" parent="1" source="xXruQWbL6GqGqKSQ3jyv-158" target="xXruQWbL6GqGqKSQ3jyv-8">
          <mxGeometry relative="1" as="geometry" />
        </mxCell>
        <mxCell id="xXruQWbL6GqGqKSQ3jyv-158" value="Nombre" style="ellipse;whiteSpace=wrap;html=1;align=center;dashed=1;" vertex="1" parent="1">
          <mxGeometry x="850" y="490" width="70" height="20" as="geometry" />
        </mxCell>
        <mxCell id="xXruQWbL6GqGqKSQ3jyv-167" style="edgeStyle=orthogonalEdgeStyle;rounded=0;orthogonalLoop=1;jettySize=auto;html=1;exitX=1;exitY=0.5;exitDx=0;exitDy=0;entryX=1;entryY=1;entryDx=0;entryDy=0;" edge="1" parent="1" source="xXruQWbL6GqGqKSQ3jyv-159" target="xXruQWbL6GqGqKSQ3jyv-8">
          <mxGeometry relative="1" as="geometry" />
        </mxCell>
        <mxCell id="xXruQWbL6GqGqKSQ3jyv-159" value="Fecha" style="ellipse;whiteSpace=wrap;html=1;align=center;dashed=1;" vertex="1" parent="1">
          <mxGeometry x="850" y="520" width="70" height="20" as="geometry" />
        </mxCell>
        <mxCell id="xXruQWbL6GqGqKSQ3jyv-168" style="edgeStyle=orthogonalEdgeStyle;rounded=0;orthogonalLoop=1;jettySize=auto;html=1;exitX=1;exitY=0.5;exitDx=0;exitDy=0;entryX=1;entryY=1;entryDx=0;entryDy=0;" edge="1" parent="1" source="xXruQWbL6GqGqKSQ3jyv-160" target="xXruQWbL6GqGqKSQ3jyv-8">
          <mxGeometry relative="1" as="geometry" />
        </mxCell>
        <mxCell id="xXruQWbL6GqGqKSQ3jyv-160" value="Privado" style="ellipse;whiteSpace=wrap;html=1;align=center;dashed=1;" vertex="1" parent="1">
          <mxGeometry x="850" y="550" width="70" height="20" as="geometry" />
        </mxCell>
        <mxCell id="xXruQWbL6GqGqKSQ3jyv-169" style="edgeStyle=orthogonalEdgeStyle;rounded=0;orthogonalLoop=1;jettySize=auto;html=1;exitX=1;exitY=0.5;exitDx=0;exitDy=0;entryX=1;entryY=1;entryDx=0;entryDy=0;" edge="1" parent="1" source="xXruQWbL6GqGqKSQ3jyv-161" target="xXruQWbL6GqGqKSQ3jyv-8">
          <mxGeometry relative="1" as="geometry" />
        </mxCell>
        <mxCell id="xXruQWbL6GqGqKSQ3jyv-161" value="Views" style="ellipse;whiteSpace=wrap;html=1;align=center;dashed=1;" vertex="1" parent="1">
          <mxGeometry x="850" y="580" width="70" height="20" as="geometry" />
        </mxCell>
        <mxCell id="xXruQWbL6GqGqKSQ3jyv-171" style="edgeStyle=orthogonalEdgeStyle;rounded=0;orthogonalLoop=1;jettySize=auto;html=1;exitX=1;exitY=0.5;exitDx=0;exitDy=0;entryX=0.857;entryY=0.95;entryDx=0;entryDy=0;entryPerimeter=0;" edge="1" parent="1" source="xXruQWbL6GqGqKSQ3jyv-170" target="xXruQWbL6GqGqKSQ3jyv-8">
          <mxGeometry relative="1" as="geometry" />
        </mxCell>
        <mxCell id="xXruQWbL6GqGqKSQ3jyv-170" value="idClasificacion" style="ellipse;whiteSpace=wrap;html=1;align=center;dashed=1;" vertex="1" parent="1">
          <mxGeometry x="830" y="610" width="90" height="20" as="geometry" />
        </mxCell>
        <mxCell id="xXruQWbL6GqGqKSQ3jyv-184" style="edgeStyle=orthogonalEdgeStyle;rounded=0;orthogonalLoop=1;jettySize=auto;html=1;exitX=0;exitY=0.5;exitDx=0;exitDy=0;entryX=1;entryY=0.5;entryDx=0;entryDy=0;" edge="1" parent="1" source="xXruQWbL6GqGqKSQ3jyv-180" target="xXruQWbL6GqGqKSQ3jyv-12">
          <mxGeometry relative="1" as="geometry" />
        </mxCell>
        <mxCell id="xXruQWbL6GqGqKSQ3jyv-180" value="idLikeVideo" style="ellipse;whiteSpace=wrap;html=1;align=center;dashed=1;" vertex="1" parent="1">
          <mxGeometry x="1400" y="340" width="90" height="20" as="geometry" />
        </mxCell>
        <mxCell id="xXruQWbL6GqGqKSQ3jyv-185" style="edgeStyle=orthogonalEdgeStyle;rounded=0;orthogonalLoop=1;jettySize=auto;html=1;exitX=0;exitY=0.5;exitDx=0;exitDy=0;" edge="1" parent="1" source="xXruQWbL6GqGqKSQ3jyv-181">
          <mxGeometry relative="1" as="geometry">
            <mxPoint x="1350" y="350" as="targetPoint" />
          </mxGeometry>
        </mxCell>
        <mxCell id="xXruQWbL6GqGqKSQ3jyv-181" value="idVideo/Com" style="ellipse;whiteSpace=wrap;html=1;align=center;dashed=1;" vertex="1" parent="1">
          <mxGeometry x="1400" y="370" width="140" height="20" as="geometry" />
        </mxCell>
        <mxCell id="xXruQWbL6GqGqKSQ3jyv-186" style="edgeStyle=orthogonalEdgeStyle;rounded=0;orthogonalLoop=1;jettySize=auto;html=1;exitX=0;exitY=0.5;exitDx=0;exitDy=0;" edge="1" parent="1" source="xXruQWbL6GqGqKSQ3jyv-182">
          <mxGeometry relative="1" as="geometry">
            <mxPoint x="1350" y="350" as="targetPoint" />
          </mxGeometry>
        </mxCell>
        <mxCell id="xXruQWbL6GqGqKSQ3jyv-182" value="idUsuario" style="ellipse;whiteSpace=wrap;html=1;align=center;dashed=1;" vertex="1" parent="1">
          <mxGeometry x="1400" y="400" width="90" height="20" as="geometry" />
        </mxCell>
        <mxCell id="xXruQWbL6GqGqKSQ3jyv-187" style="edgeStyle=orthogonalEdgeStyle;rounded=0;orthogonalLoop=1;jettySize=auto;html=1;exitX=0;exitY=0.5;exitDx=0;exitDy=0;" edge="1" parent="1" source="xXruQWbL6GqGqKSQ3jyv-183">
          <mxGeometry relative="1" as="geometry">
            <mxPoint x="1350" y="350" as="targetPoint" />
          </mxGeometry>
        </mxCell>
        <mxCell id="xXruQWbL6GqGqKSQ3jyv-183" value="Fecha" style="ellipse;whiteSpace=wrap;html=1;align=center;dashed=1;" vertex="1" parent="1">
          <mxGeometry x="1400" y="430" width="90" height="20" as="geometry" />
        </mxCell>
        <mxCell id="xXruQWbL6GqGqKSQ3jyv-204" value="" style="edgeStyle=orthogonalEdgeStyle;rounded=0;orthogonalLoop=1;jettySize=auto;html=1;" edge="1" parent="1" source="xXruQWbL6GqGqKSQ3jyv-200" target="xXruQWbL6GqGqKSQ3jyv-15">
          <mxGeometry relative="1" as="geometry" />
        </mxCell>
        <mxCell id="xXruQWbL6GqGqKSQ3jyv-200" value="idCom" style="ellipse;whiteSpace=wrap;html=1;align=center;dashed=1;" vertex="1" parent="1">
          <mxGeometry x="1210" y="480" width="90" height="20" as="geometry" />
        </mxCell>
        <mxCell id="xXruQWbL6GqGqKSQ3jyv-205" style="edgeStyle=orthogonalEdgeStyle;rounded=0;orthogonalLoop=1;jettySize=auto;html=1;exitX=0;exitY=0.5;exitDx=0;exitDy=0;entryX=1;entryY=0.5;entryDx=0;entryDy=0;" edge="1" parent="1" source="xXruQWbL6GqGqKSQ3jyv-201" target="xXruQWbL6GqGqKSQ3jyv-15">
          <mxGeometry relative="1" as="geometry" />
        </mxCell>
        <mxCell id="xXruQWbL6GqGqKSQ3jyv-201" value="idVide/Com" style="ellipse;whiteSpace=wrap;html=1;align=center;dashed=1;" vertex="1" parent="1">
          <mxGeometry x="1210" y="510" width="90" height="20" as="geometry" />
        </mxCell>
        <mxCell id="xXruQWbL6GqGqKSQ3jyv-206" style="edgeStyle=orthogonalEdgeStyle;rounded=0;orthogonalLoop=1;jettySize=auto;html=1;exitX=0;exitY=0.5;exitDx=0;exitDy=0;entryX=1;entryY=0.5;entryDx=0;entryDy=0;" edge="1" parent="1" source="xXruQWbL6GqGqKSQ3jyv-202" target="xXruQWbL6GqGqKSQ3jyv-15">
          <mxGeometry relative="1" as="geometry" />
        </mxCell>
        <mxCell id="xXruQWbL6GqGqKSQ3jyv-202" value="idUsuario" style="ellipse;whiteSpace=wrap;html=1;align=center;dashed=1;" vertex="1" parent="1">
          <mxGeometry x="1210" y="540" width="90" height="20" as="geometry" />
        </mxCell>
        <mxCell id="xXruQWbL6GqGqKSQ3jyv-207" style="edgeStyle=orthogonalEdgeStyle;rounded=0;orthogonalLoop=1;jettySize=auto;html=1;exitX=0;exitY=0.5;exitDx=0;exitDy=0;entryX=1;entryY=0.5;entryDx=0;entryDy=0;" edge="1" parent="1" source="xXruQWbL6GqGqKSQ3jyv-203" target="xXruQWbL6GqGqKSQ3jyv-15">
          <mxGeometry relative="1" as="geometry" />
        </mxCell>
        <mxCell id="xXruQWbL6GqGqKSQ3jyv-203" value="Fecha" style="ellipse;whiteSpace=wrap;html=1;align=center;dashed=1;" vertex="1" parent="1">
          <mxGeometry x="1210" y="570" width="90" height="20" as="geometry" />
        </mxCell>
        <mxCell id="xXruQWbL6GqGqKSQ3jyv-215" style="edgeStyle=orthogonalEdgeStyle;rounded=0;orthogonalLoop=1;jettySize=auto;html=1;exitX=0;exitY=0.5;exitDx=0;exitDy=0;entryX=1;entryY=0.5;entryDx=0;entryDy=0;" edge="1" parent="1" source="xXruQWbL6GqGqKSQ3jyv-212" target="xXruQWbL6GqGqKSQ3jyv-12">
          <mxGeometry relative="1" as="geometry">
            <Array as="points">
              <mxPoint x="1350" y="470" />
            </Array>
          </mxGeometry>
        </mxCell>
        <mxCell id="xXruQWbL6GqGqKSQ3jyv-212" value="Reaccion" style="ellipse;whiteSpace=wrap;html=1;align=center;dashed=1;" vertex="1" parent="1">
          <mxGeometry x="1400" y="460" width="90" height="20" as="geometry" />
        </mxCell>
        <mxCell id="xXruQWbL6GqGqKSQ3jyv-219" style="edgeStyle=orthogonalEdgeStyle;rounded=0;orthogonalLoop=1;jettySize=auto;html=1;exitX=0;exitY=0.5;exitDx=0;exitDy=0;entryX=1;entryY=0.5;entryDx=0;entryDy=0;" edge="1" parent="1" source="xXruQWbL6GqGqKSQ3jyv-216" target="xXruQWbL6GqGqKSQ3jyv-15">
          <mxGeometry relative="1" as="geometry" />
        </mxCell>
        <mxCell id="xXruQWbL6GqGqKSQ3jyv-216" value="Comentario" style="ellipse;whiteSpace=wrap;html=1;align=center;dashed=1;" vertex="1" parent="1">
          <mxGeometry x="1210" y="600" width="90" height="20" as="geometry" />
        </mxCell>
        <mxCell id="xXruQWbL6GqGqKSQ3jyv-226" style="edgeStyle=orthogonalEdgeStyle;rounded=0;orthogonalLoop=1;jettySize=auto;html=1;exitX=1;exitY=0.5;exitDx=0;exitDy=0;entryX=0;entryY=0.5;entryDx=0;entryDy=0;" edge="1" parent="1" source="xXruQWbL6GqGqKSQ3jyv-222" target="xXruQWbL6GqGqKSQ3jyv-1">
          <mxGeometry relative="1" as="geometry" />
        </mxCell>
        <mxCell id="xXruQWbL6GqGqKSQ3jyv-222" value="idMembresia" style="ellipse;whiteSpace=wrap;html=1;align=center;dashed=1;" vertex="1" parent="1">
          <mxGeometry x="-300" y="380" width="100" height="20" as="geometry" />
        </mxCell>
        <mxCell id="xXruQWbL6GqGqKSQ3jyv-228" style="edgeStyle=orthogonalEdgeStyle;rounded=0;orthogonalLoop=1;jettySize=auto;html=1;exitX=1;exitY=0.5;exitDx=0;exitDy=0;entryX=0;entryY=0.5;entryDx=0;entryDy=0;" edge="1" parent="1" source="xXruQWbL6GqGqKSQ3jyv-223" target="xXruQWbL6GqGqKSQ3jyv-1">
          <mxGeometry relative="1" as="geometry" />
        </mxCell>
        <mxCell id="xXruQWbL6GqGqKSQ3jyv-223" value="Correo" style="ellipse;whiteSpace=wrap;html=1;align=center;dashed=1;" vertex="1" parent="1">
          <mxGeometry x="-270" y="320" width="70" height="20" as="geometry" />
        </mxCell>
        <mxCell id="xXruQWbL6GqGqKSQ3jyv-227" style="edgeStyle=orthogonalEdgeStyle;rounded=0;orthogonalLoop=1;jettySize=auto;html=1;exitX=1;exitY=0.5;exitDx=0;exitDy=0;entryX=0;entryY=0.5;entryDx=0;entryDy=0;" edge="1" parent="1" source="xXruQWbL6GqGqKSQ3jyv-224" target="xXruQWbL6GqGqKSQ3jyv-1">
          <mxGeometry relative="1" as="geometry" />
        </mxCell>
        <mxCell id="xXruQWbL6GqGqKSQ3jyv-224" value="Contrasena" style="ellipse;whiteSpace=wrap;html=1;align=center;dashed=1;" vertex="1" parent="1">
          <mxGeometry x="-270" y="350" width="70" height="20" as="geometry" />
        </mxCell>
        <mxCell id="xXruQWbL6GqGqKSQ3jyv-232" value="" style="edgeStyle=orthogonalEdgeStyle;rounded=0;orthogonalLoop=1;jettySize=auto;html=1;" edge="1" parent="1" source="xXruQWbL6GqGqKSQ3jyv-231" target="xXruQWbL6GqGqKSQ3jyv-1">
          <mxGeometry relative="1" as="geometry" />
        </mxCell>
        <mxCell id="xXruQWbL6GqGqKSQ3jyv-231" value="Tiene" style="shape=rhombus;perimeter=rhombusPerimeter;whiteSpace=wrap;html=1;align=center;" vertex="1" parent="1">
          <mxGeometry x="-140" y="120" width="120" height="60" as="geometry" />
        </mxCell>
        <mxCell id="xXruQWbL6GqGqKSQ3jyv-238" style="edgeStyle=orthogonalEdgeStyle;rounded=0;orthogonalLoop=1;jettySize=auto;html=1;exitX=0;exitY=0.5;exitDx=0;exitDy=0;entryX=1;entryY=1;entryDx=0;entryDy=0;" edge="1" parent="1" source="xXruQWbL6GqGqKSQ3jyv-237" target="xXruQWbL6GqGqKSQ3jyv-5">
          <mxGeometry relative="1" as="geometry" />
        </mxCell>
        <mxCell id="xXruQWbL6GqGqKSQ3jyv-237" value="idCanal" style="ellipse;whiteSpace=wrap;html=1;align=center;dashed=1;" vertex="1" parent="1">
          <mxGeometry x="550" y="440" width="70" height="20" as="geometry" />
        </mxCell>
        <mxCell id="xXruQWbL6GqGqKSQ3jyv-240" style="edgeStyle=orthogonalEdgeStyle;rounded=0;orthogonalLoop=1;jettySize=auto;html=1;exitX=1;exitY=0.5;exitDx=0;exitDy=0;entryX=1;entryY=1;entryDx=0;entryDy=0;" edge="1" parent="1" source="xXruQWbL6GqGqKSQ3jyv-239" target="xXruQWbL6GqGqKSQ3jyv-8">
          <mxGeometry relative="1" as="geometry">
            <mxPoint x="960" y="450" as="targetPoint" />
            <Array as="points">
              <mxPoint x="945" y="650" />
            </Array>
          </mxGeometry>
        </mxCell>
        <mxCell id="xXruQWbL6GqGqKSQ3jyv-239" value="Archivo" style="ellipse;whiteSpace=wrap;html=1;align=center;dashed=1;" vertex="1" parent="1">
          <mxGeometry x="840" y="640" width="90" height="20" as="geometry" />
        </mxCell>
        <mxCell id="xXruQWbL6GqGqKSQ3jyv-242" style="edgeStyle=orthogonalEdgeStyle;rounded=0;orthogonalLoop=1;jettySize=auto;html=1;exitX=1;exitY=0.5;exitDx=0;exitDy=0;entryX=0.5;entryY=0;entryDx=0;entryDy=0;" edge="1" parent="1" source="xXruQWbL6GqGqKSQ3jyv-241" target="xXruQWbL6GqGqKSQ3jyv-56">
          <mxGeometry relative="1" as="geometry" />
        </mxCell>
        <mxCell id="xXruQWbL6GqGqKSQ3jyv-241" value="Guardar" style="ellipse;whiteSpace=wrap;html=1;align=center;dashed=1;" vertex="1" parent="1">
          <mxGeometry x="370" y="-230" width="70" height="20" as="geometry" />
        </mxCell>
      </root>
    </mxGraphModel>
  </diagram>
</mxfile>
